<svg id="Слой_1" data-name="Слой 1" xmlns="http://www.w3.org/2000/svg" viewBox="0 0 250 100"><defs><style>.cls-1{fill:#231f20;}.cls-2{fill:#6ab8ee;}</style></defs><title>Логотип САПП</title><path class="cls-1" d="M120.58,75.18l-3.14-11.06H101L97.76,75.18H85.06l16.89-50.36h15.67l16.93,50.36ZM109,36.16,103.45,54.9H115l-5.41-18.74Z"/><path class="cls-1" d="M188.92,75.18H176.14V35.12H156.49V75.18H143.69V24.82h45.23Z"/><path class="cls-1" d="M246.71,75.18H233.93V35.12H214.29V75.18H201.48V24.82h45.23Z"/><path class="cls-2" d="M50,9.53H47.65a.56.56,0,0,1-.53-.44c-.18-.8-.4-1.57-.63-2.35a.54.54,0,0,1,.25-.64l2-1.16a.05.05,0,0,0,0,0,.53.53,0,0,0,.16-.71L46.79.5H42.4a.89.89,0,0,0-.89.81.27.27,0,0,0,0,.09V5.18a.89.89,0,0,1-.7.87c-.64.14-1.28.3-1.91.47A20.2,20.2,0,0,1,40.52,18,20.45,20.45,0,0,1,20.33,35.46h0A20.34,20.34,0,0,1,5.46,29L3.58,32.27a.85.85,0,0,0,.26,1.17.19.19,0,0,0,.07.06l3.28,1.89a.89.89,0,0,1,.41,1c-.41,1.27-.75,2.54-1,3.85a.91.91,0,0,1-.88.71H4.93a4.94,4.94,0,0,0,.5.29l4.06,2.35a.54.54,0,0,0,.72-.16.05.05,0,0,0,0,0l1.16-2a.54.54,0,0,1,.64-.25c.76.25,1.54.46,2.35.63a.55.55,0,0,1,.44.53v2.36a.55.55,0,0,0,.54.49h9.88a.54.54,0,0,0,.54-.49.09.09,0,0,0,0,0V42.36a.55.55,0,0,1,.43-.53c.8-.18,1.58-.39,2.36-.63a.55.55,0,0,1,.64.25l1.15,2,0,0a.54.54,0,0,0,.72.16l4.06-2.35q.4-.21.77-.45l3.72-2.15a.54.54,0,0,0,.23-.71l0,0-1.16-2a.53.53,0,0,1,.11-.67c.59-.55,1.17-1.13,1.71-1.72a.54.54,0,0,1,.68-.11l2,1.16,0,0A.55.55,0,0,0,44,34.4l2.15-3.72c.16-.27.33-.54.48-.82l2.32-4a.54.54,0,0,0-.16-.72l0,0-2-1.15a.54.54,0,0,1-.25-.64c.24-.77.46-1.55.63-2.35a.55.55,0,0,1,.53-.44H50A.54.54,0,0,0,50.5,20V10.07A.56.56,0,0,0,50,9.53Z"/><path class="cls-2" d="M35.88,66l1.19-.27h0a.28.28,0,0,0,.2-.34L36.75,63c0-.16-.07-.32-.11-.49l-.5-2.22a.28.28,0,0,0-.32-.22h0l-1.19.28a.3.3,0,0,1-.33-.17c-.18-.38-.38-.77-.6-1.14a.28.28,0,0,1,.05-.36l.9-.84h0a.29.29,0,0,0,0-.4l-1.54-1.67-.32-.35L31.1,53.54a.27.27,0,0,0-.38,0l0,0-.9.83a.29.29,0,0,1-.36,0c-.35-.24-.71-.47-1.09-.69a.29.29,0,0,1-.13-.34l.36-1.17s0,0,0,0a.28.28,0,0,0-.2-.34l-5-1.57a.29.29,0,0,0-.36.17v0l-.36,1.17a.28.28,0,0,1-.3.2c-.43,0-.86,0-1.29,0a.29.29,0,0,1-.28-.23l-.27-1.19a0,0,0,0,0,0,0,.29.29,0,0,0-.34-.2l-2.43.55-.28.06-.19,0-2.22.5a.3.3,0,0,0-.22.33v0l.28,1.2a.29.29,0,0,1-.17.32c-.38.19-.77.38-1.14.6a.28.28,0,0,1-.36,0l-.84-.91,0,0a.3.3,0,0,0-.39,0l-1.67,1.55,0,0-.38.36-1.74,1.6a.27.27,0,0,0,0,.38s0,0,0,0l.83.9a.29.29,0,0,1,0,.36c-.24.36-.47.71-.69,1.09a.29.29,0,0,1-.35.13L7,58.85H7a.28.28,0,0,0-.33.2l-.22.7h.85a.82.82,0,0,1,.79.64c.26,1.17.57,2.32.93,3.46a.8.8,0,0,1-.36.94L6.57,66v.39a.29.29,0,0,1-.23.28l-1,.23a.75.75,0,0,0,0,.72l3.3,5.71.72,1.26.1.16,2.35,4.08.59-.54a.28.28,0,0,1,.36,0,12.48,12.48,0,0,0,1.09.69.27.27,0,0,1,.13.34l-.36,1.17a0,0,0,0,0,0,0,.15.15,0,0,0,0,.09l0,0,.06,0,3-1.71a.8.8,0,0,1,1,.16q.93,1,1.92,1.95a.27.27,0,0,1,.24-.11c.44,0,.86.05,1.29.05a.29.29,0,0,1,.28.22l.27,1.19v0a.29.29,0,0,0,.34.2l2.43-.54.46-.11,2.22-.5a.28.28,0,0,0,.22-.32v0l-.27-1.19a.29.29,0,0,1,.16-.33,12.54,12.54,0,0,0,1.14-.6.3.3,0,0,1,.36.05l.83.9,0,0a.28.28,0,0,0,.39,0L31.7,78.3l.37-.34.34-.31,1.47-1.36a.29.29,0,0,0,0-.38l0,0-.83-.9a.28.28,0,0,1,0-.36c.24-.35.48-.71.69-1.09a.28.28,0,0,1,.34-.13l1.17.36h0a.29.29,0,0,0,.34-.2l1.56-5a.3.3,0,0,0-.16-.36h0l-1.17-.36a.29.29,0,0,1-.2-.3c0-.43.05-.86.05-1.29A.29.29,0,0,1,35.88,66Zm-18,10.67A10.83,10.83,0,0,1,17.75,56h0a10.7,10.7,0,0,1,6.58,0,10.82,10.82,0,0,1-6.45,20.66Z"/><path class="cls-1" d="M82.63,87.65a.89.89,0,0,1-.37,1.17l-6.1,3.51c-.42.26-.83.5-1.27.73l-6.66,3.85a.89.89,0,0,1-1.18-.26l0-.07-1.89-3.28a.9.9,0,0,0-1-.41c-1.26.41-2.53.75-3.85,1a.9.9,0,0,0-.71.87V98.6a.19.19,0,0,1,0,.08.9.9,0,0,1-.89.82H42.4a.89.89,0,0,1-.89-.81.27.27,0,0,1,0-.09V94.82a.9.9,0,0,0-.7-.87q-2-.43-3.86-1a.89.89,0,0,0-1,.41L34,96.59l0,.07a.9.9,0,0,1-1.19.26L26.1,93.07c-.43-.23-.85-.48-1.27-.73l-6.1-3.51a.9.9,0,0,1-.36-1.16l0-.07,1.9-3.29a.9.9,0,0,0-.18-1.11l-.68-.65q-1.1-1-2.14-2.17a.89.89,0,0,0-1.11-.18l-3.29,1.9-.07,0,0,0a.89.89,0,0,1-1.11-.38l-.9-1.56L8.17,75.67l-.11-.18-.8-1.41L3.58,67.73a.83.83,0,0,1,0-.8.79.79,0,0,1,.31-.37.19.19,0,0,1,.07-.06l1-.58,2.27-1.31a.89.89,0,0,0,.41-1c-.41-1.27-.75-2.54-1-3.85A.91.91,0,0,0,5.67,59H1.81A.89.89,0,0,1,1,58.1V41.9A.89.89,0,0,1,1.81,41H5.67a.91.91,0,0,0,.88-.71c.29-1.31.63-2.58,1-3.85a.89.89,0,0,0-.41-1L3.91,33.5a.19.19,0,0,1-.07-.06.85.85,0,0,1-.26-1.17L5.46,29l1.8-3.12.8-1.41.11-.18,3.51-6.1a.89.89,0,0,1,1.16-.36l.07,0,3.29,1.9a.89.89,0,0,0,1.11-.18q1.35-1.47,2.82-2.82a.9.9,0,0,0,.18-1.11l-1.9-3.29,0-.07a.9.9,0,0,1,.36-1.16l6.1-3.51c.42-.26.84-.5,1.27-.73l6.66-3.85a.9.9,0,0,1,1.19.26l0,.07,1.89,3.28a.89.89,0,0,0,1,.41c.64-.2,1.3-.4,2-.57s1.27-.33,1.91-.47a.89.89,0,0,0,.7-.87V1.4a.27.27,0,0,1,0-.09A.89.89,0,0,1,42.4.5H58.6a.9.9,0,0,1,.89.82.19.19,0,0,1,0,.08V5.18a.89.89,0,0,0,.71.87c1.32.29,2.59.64,3.85,1a.9.9,0,0,0,1-.41L67,3.41l0-.07a.89.89,0,0,1,1.18-.26l6.66,3.85c.44.23.85.48,1.27.73l6.1,3.51a.89.89,0,0,1,.37,1.17l0,.06-1.9,3.29a.89.89,0,0,0,.18,1.11l.71.67a1,1,0,0,1,0,1.42l-6.74,6.74a1,1,0,0,1-1.38,0A33.49,33.49,0,0,0,17.35,45.21,31.6,31.6,0,0,0,17,49a32.88,32.88,0,0,0,.06,3.42c.06.83.15,1.64.27,2.46h0a33.69,33.69,0,0,0,16.3,24.08,33.37,33.37,0,0,0,39.83-4.57,1,1,0,0,1,1.38,0l6.74,6.74a1,1,0,0,1,0,1.43l-.71.66a.89.89,0,0,0-.18,1.11l1.9,3.29Z"/></svg>